HIERARCHY
ROOT Hips
{
  OFFSET -1.56614 0.00 -1.85809
  CHANNELS 6 Xposition Yposition Zposition Zrotation Xrotation Yrotation
  JOINT LHipJoint
  {
    OFFSET 0 0 0
    CHANNELS 3 Zrotation Xrotation Yrotation
    JOINT LeftUpLeg
    {
      OFFSET 1.8 -1.4 0.085
      CHANNELS 3 Zrotation Xrotation Yrotation
      JOINT LeftLeg
      {
        OFFSET 2.215 -6 0
        CHANNELS 3 Zrotation Xrotation Yrotation
        JOINT LeftFoot
        {
          OFFSET 2.5 -6.9 0
          CHANNELS 3 Zrotation Xrotation Yrotation
          JOINT LeftToeBase
          {
            OFFSET 0.2 -0.5 1.95
            CHANNELS 3 Zrotation Xrotation Yrotation
            End Site
            {
              OFFSET 0 0 1
            }
          }
        }
      }
    }
  }
  JOINT RHipJoint
  {
    OFFSET 0 0 0
    CHANNELS 3 Zrotation Xrotation Yrotation
    JOINT RightUpLeg
    {
      OFFSET -1.8 -1.4 0.085
      CHANNELS 3 Zrotation Xrotation Yrotation
      JOINT RightLeg
      {
        OFFSET -2.215 -6 0
        CHANNELS 3 Zrotation Xrotation Yrotation
        JOINT RightFoot
        {
          OFFSET -2.5 -6.9 0
          CHANNELS 3 Zrotation Xrotation Yrotation
          JOINT RightToeBase
          {
            OFFSET -0.2 -0.5 1.95
            CHANNELS 3 Zrotation Xrotation Yrotation
            End Site
            {
              OFFSET 0 0 1
            }
          }
        }
      }
    }
  }
  JOINT LowerBack
  {
    OFFSET 0 0 0
    CHANNELS 3 Zrotation Xrotation Yrotation
    JOINT Spine
    {
      OFFSET -0.087 1.94 -0.2889
      CHANNELS 3 Zrotation Xrotation Yrotation
      JOINT Spine1
      {
        OFFSET 0 1.95 0.06
        CHANNELS 3 Zrotation Xrotation Yrotation
        JOINT Neck
        {
          OFFSET 0 0 0
          CHANNELS 3 Zrotation Xrotation Yrotation
          JOINT Neck1
          {
            OFFSET 0 1.6 0.34
            CHANNELS 3 Zrotation Xrotation Yrotation
            JOINT Head
            {
              OFFSET 0 1.667 -0.24
              CHANNELS 3 Zrotation Xrotation Yrotation
              End Site
              {
                OFFSET 0 1.686 -0.12
              }
            }
          }
        }
        JOINT LeftShoulder
        {
          OFFSET 0 0 0
          CHANNELS 3 Zrotation Xrotation Yrotation
          JOINT LeftArm
          {
            OFFSET 2.7 1.55 -0.73
            CHANNELS 3 Zrotation Xrotation Yrotation
            JOINT LeftForeArm
            {
              OFFSET 5.45 0 0
              CHANNELS 3 Zrotation Xrotation Yrotation
              JOINT LeftHand
              {
                OFFSET 3.45 0 0
                CHANNELS 3 Zrotation Xrotation Yrotation
                JOINT LeftFingerBase
                {
                  OFFSET 0 0 0
                  CHANNELS 3 Zrotation Xrotation Yrotation
                  JOINT LeftHandIndex1
                  {
                    OFFSET 0.75 0 0
                    CHANNELS 3 Zrotation Xrotation Yrotation
                    End Site
                    {
                      OFFSET 0.6 0 0
                    }
                  }
                }
                JOINT LThumb
                {
                  OFFSET 0 0 0
                  CHANNELS 3 Zrotation Xrotation Yrotation
                  End Site
                  {
                    OFFSET 0.59 0 0.59
                  }
                }
              }
            }
          }
        }
        JOINT RightShoulder
        {
          OFFSET 0 0 0
          CHANNELS 3 Zrotation Xrotation Yrotation
          JOINT RightArm
          {
            OFFSET -2.7 1.55 -0.73
            CHANNELS 3 Zrotation Xrotation Yrotation
            JOINT RightForeArm
            {
              OFFSET -5.45 0 0
              CHANNELS 3 Zrotation Xrotation Yrotation
              JOINT RightHand
              {
                OFFSET -3.45 0 0
                CHANNELS 3 Zrotation Xrotation Yrotation
                JOINT RightFingerBase
                {
                  OFFSET 0 0 0
                  CHANNELS 3 Zrotation Xrotation Yrotation
                  JOINT RightHandIndex1
                  {
                    OFFSET -0.75 0 0
                    CHANNELS 3 Zrotation Xrotation Yrotation
                    End Site
                    {
                      OFFSET -0.6 0 0
                    }
                  }
                }
                JOINT RThumb
                {
                  OFFSET 0 0 0
                  CHANNELS 3 Zrotation Xrotation Yrotation
                  End Site
                  {
                    OFFSET -0.59 0 0.59
                  }
                }
              }
            }
          }
        }
      }
    }
  }
}
MOTION
Frames:	9
Frame Time:	0.00833333
0.77607 18.2261 -0.760854 -0.000955902 -0.000535512 -0.00350691 -7.36384e-020 0 -0 -19.7914 1.20436 1.97179 -0.0124399 0.890497 -1.19968 -0.905644 -2.088 -0.802521 -3.40747e-015 0 -3.88251e-019 -7.36384e-020 0 -0 20.276 2.82555 2.07962 -0.0516747 -0.82363 -2.61495 0.940125 -1.98978 0.567572 4.93085e-015 -1.09196e-019 -0 -7.36384e-020 0 -0 0.00164557 -0.002019 0.00674512 0.00154237 0.00258833 0.00808883 0.00138469 -16 0.00502357 0.00561279 21 -0.0156622 0.0029505 11.0027 0.000938462 0.380058 0.0085436 3.39947 -38.5465 -48.3512 -41.212 11.1608 55.9829 -0.000972185 0.7386 -1.55793 -6.22902 -1.56734e-006 -2.2991e-007 3.42098e-006 5.72592e-008 2.9039e-008 1.68186e-006 -3.97569e-016 -7.95139e-016 -0 -0.32998 0.00741754 -3.46599 22.5877 -45.3031 22.2084 2.24332 49.2996 0.00596436 -2.77755 -1.76489 0.320825 1.46604e-015 2.98177e-016 -0 -4.23313e-007 5.20607e-008 4.65626e-009 -9.93923e-017 9.93923e-017 1.59028e-015 
0.777125 18.2258 -0.759978 -0.00513919 -0.00328632 -0.0175187 -1.90713e-019 0 -0 -19.7962 1.20474 1.97526 -0.0129946 0.877299 -1.18151 -0.8815 -2.10562 -0.809353 -1.54891e-015 0 5.04727e-018 -1.90713e-019 0 -0 20.2764 2.8227 2.07927 -0.0485028 -0.809358 -2.61261 0.937494 -1.99236 0.569165 2.00405e-015 -2.13538e-018 -0 -1.90713e-019 0 -0 0.00880312 -0.00978486 0.00674512 0.00154087 0.0132182 0.00808883 0.00138469 -16 0.00502357 0.00561279 21 -0.0156622 0.0137022 11.0147 0.00567581 0.380059 0.00854363 3.39662 -38.5615 -48.339 -41.2066 11.1551 55.9718 -0.000971907 0.716576 -1.5553 -6.23674 -1.56734e-006 -2.2991e-007 3.42098e-006 5.72592e-008 2.9039e-008 1.68186e-006 5.96354e-016 -1.59028e-015 -3.18055e-015 -0.32998 0.00741754 -3.46599 22.5891 -45.3019 22.2175 2.26012 49.2535 0.00595878 -2.73198 -1.7719 0.235761 8.44835e-016 1.98785e-016 -1.59028e-015 -4.23313e-007 5.20607e-008 4.65625e-009 -7.20594e-016 0 -0 
0.778181 18.2256 -0.759103 -0.00938128 -0.00613452 -0.0315279 6.87781e-019 0 6.21202e-018 -19.8009 1.20521 1.97884 -0.0135455 0.863811 -1.16343 -0.857264 -2.12348 -0.816278 1.1745e-015 -1.2424e-017 4.46489e-018 6.87781e-019 0 6.21202e-018 20.2768 2.81966 2.07899 -0.0453105 -0.794651 -2.61051 0.934709 -1.99495 0.570765 1.32141e-015 1.16475e-018 3.10601e-018 6.87781e-019 0 6.21202e-018 0.0160527 -0.0175022 0.00674512 0.00153936 0.0238923 0.00808884 0.00138469 -16 0.00502357 0.00561279 21 -0.0156622 0.024284 11.0269 0.0105709 0.380059 0.00854366 3.39375 -38.5765 -48.3268 -41.201 11.1511 55.9669 -0.000971784 0.696407 -1.55228 -6.2499 -1.56734e-006 -2.2991e-007 3.42098e-006 5.72592e-008 2.9039e-008 1.68186e-006 3.97569e-016 0 -0 -0.32998 0.00741754 -3.46599 22.5904 -45.3004 22.2266 2.27754 49.2063 0.0059531 -2.68572 -1.77901 0.149004 1.46604e-015 5.96354e-016 -1.59028e-015 -4.23313e-007 5.20607e-008 4.65625e-009 -9.93923e-017 4.96962e-016 -0 
0.779239 18.2253 -0.758206 -0.0129924 -0.00791131 -0.0455651 5.5887e-019 0 -1.2424e-017 -19.8062 1.20479 1.98117 -0.014038 0.853499 -1.14443 -0.834087 -2.13874 -0.82219 3.48269e-015 0 8.73565e-018 5.5887e-019 0 -1.2424e-017 20.2762 2.81859 2.07788 -0.0423571 -0.784728 -2.60565 0.933628 -1.99741 0.57229 -1.44952e-015 -1.55301e-018 -0 5.5887e-019 0 -1.2424e-017 0.0222899 -0.0257528 0.00674512 0.00153792 0.0340797 0.00808884 0.00138469 -16 0.00502357 0.00561279 21 -0.0156622 0.0367116 11.0372 0.0137355 0.38006 0.00854368 3.39117 -38.5916 -48.3146 -41.1967 11.1284 55.8941 -0.00096996 0.655849 -1.55355 -6.20321 -1.56734e-006 -2.2991e-007 3.42098e-006 5.72592e-008 2.9039e-008 1.68186e-006 7.95139e-016 -7.95139e-016 3.18055e-015 -0.32998 0.00741754 -3.46599 22.593 -45.3018 22.2361 2.28807 49.1705 0.00594879 -2.64721 -1.78499 0.080874 8.19987e-016 1.98785e-016 -1.59028e-015 -4.23313e-007 5.20607e-008 4.65625e-009 -7.45443e-016 -1.98785e-016 -0 
0.780302 18.2251 -0.75726 -0.0152704 -0.0074127 -0.0596756 4.75911e-018 3.10601e-018 2.48481e-017 -19.8127 1.20226 1.98075 -0.0144184 0.850125 -1.12334 -0.813055 -2.14843 -0.825924 -1.79686e-015 -1.2424e-017 3.88251e-019 4.75911e-018 3.10601e-018 2.48481e-017 20.2735 2.82175 2.07499 -0.03988 -0.785116 -2.59488 0.936133 -1.99951 0.573616 5.04015e-015 -2.91188e-018 -6.21202e-018 4.75911e-018 3.10601e-018 2.48481e-017 0.0263632 -0.0352066 0.00674512 0.00140405 0.0432877 0.00808884 0.00138469 -16 0.00502357 0.00561279 21 -0.0156622 0.0530256 11.0438 0.0132037 0.38006 0.0085437 3.38922 -38.6067 -48.3024 -41.1948 11.0658 55.6767 -0.000964562 0.572029 -1.56401 -6.02864 -1.56734e-006 -2.2991e-007 3.42098e-006 5.72592e-008 2.9039e-008 1.68186e-006 -3.97569e-016 7.95139e-016 6.36111e-015 -0.32998 0.00741754 -3.46599 22.5984 -45.3091 22.2467 2.28391 49.1587 0.00594737 -2.62498 -1.78859 0.0524348 7.20594e-016 2.98177e-016 -1.59028e-015 -4.23313e-007 5.20607e-008 4.65626e-009 -8.44835e-016 9.93923e-017 -0 
0.781363 18.2251 -0.75626 -0.0157366 -0.00357994 -0.074101 -1.50978e-018 1.55301e-018 -0 -19.8211 1.1932 1.97511 -0.0146246 0.859818 -1.09694 -0.793757 -2.14905 -0.826115 -7.68707e-016 0 -1.0871e-017 -1.50978e-018 1.55301e-018 -0 20.2676 2.83209 2.06897 -0.0376554 -0.802842 -2.57463 0.943406 -1.9996 0.574097 9.73925e-015 -3.10601e-018 -1.2424e-017 -1.50978e-018 1.55301e-018 -0 0.0270628 -0.0474764 0.00674512 0.00121347 0.0518657 0.00808884 0.00138469 -16 0.00502357 0.00561279 21 -0.0156622 0.0744818 11.0492 0.00694843 0.38006 0.0085437 3.38814 -38.6214 -48.2896 -41.1954 10.9414 55.2407 -0.000953959 0.425041 -1.58923 -5.6555 -1.56734e-006 -2.2991e-007 3.42098e-006 5.72592e-008 2.9039e-008 1.68186e-006 3.97569e-016 7.95139e-016 3.18055e-015 -0.32998 0.00741754 -3.46599 22.6109 -45.3246 22.2629 2.25785 49.1831 0.00595031 -2.62454 -1.78872 0.0840643 8.44835e-016 9.93923e-017 -3.18055e-015 -4.23313e-007 5.20607e-008 4.65626e-009 -7.20594e-016 -9.93923e-017 -1.59028e-015 
0.782427 18.2252 -0.755225 -0.0151909 0.00199665 -0.0886017 5.75173e-018 -3.88251e-019 -2.48481e-017 -19.8305 1.18221 1.96725 -0.014763 0.875095 -1.06874 -0.775972 -2.14532 -0.824605 -3.50661e-015 0 -6.21202e-018 5.75173e-018 -3.88251e-019 -2.48481e-017 20.26 2.84576 2.06153 -0.035732 -0.828675 -2.54977 0.953382 -1.99927 0.574374 6.83473e-015 0 -0 5.75173e-018 -3.88251e-019 -2.48481e-017 0.0260854 -0.0607651 0.00674512 0.00107753 0.0597671 0.00808884 0.00138469 -16 0.00502357 0.00561279 21 -0.0156622 0.0988675 11.0522 -0.00216831 0.38006 0.00854371 3.38753 -38.6361 -48.2768 -41.1978 10.7861 54.6933 -0.000941047 0.245423 -1.62156 -5.18332 -1.56734e-006 -2.2991e-007 3.42098e-006 5.72592e-008 2.9039e-008 1.68186e-006 7.95139e-016 0 6.36111e-015 -0.32998 0.00741754 -3.46599 22.6258 -45.3446 22.2804 2.2205 49.2261 0.00595549 -2.63638 -1.78702 0.146288 1.81391e-015 2.98177e-016 -1.59028e-015 -4.23313e-007 5.20607e-008 4.65625e-009 2.23633e-016 9.93923e-017 -0 
0.783507 18.2252 -0.754175 -0.0146998 0.00709208 -0.102762 5.48102e-018 1.55301e-018 -0 -19.8393 1.17706 1.96185 -0.0149645 0.884369 -1.04449 -0.759936 -2.14419 -0.824108 1.77717e-015 -6.21202e-018 -3.10601e-018 5.48102e-018 1.55301e-018 -0 20.2529 2.85699 2.05526 -0.034376 -0.848841 -2.52744 0.963365 -2.00134 0.575564 5.85542e-015 1.2424e-017 -6.21202e-018 5.48102e-018 1.55301e-018 -0 0.0258833 -0.0721525 0.00674512 0.000341716 0.0666163 0.00808884 0.00138469 -16 0.00502357 0.00561279 21 -0.0156622 0.123297 11.0494 -0.0100231 0.38006 0.00854372 3.38688 -38.6515 -48.2649 -41.2015 10.6442 54.1869 -0.000929482 0.0753087 -1.64982 -4.75566 -1.56734e-006 -2.2991e-007 3.42098e-006 5.72592e-008 2.9039e-008 1.68186e-006 -3.97569e-016 -7.95139e-016 3.18055e-015 -0.32998 0.00741754 -3.46599 22.6358 -45.3641 22.2912 2.18686 49.2624 0.00595986 -2.64798 -1.78577 0.197131 9.44227e-016 3.97569e-016 1.59028e-015 -4.23313e-007 5.20607e-008 4.65626e-009 -6.21202e-016 1.98785e-016 3.18055e-015 
0.784614 18.225 -0.753132 -0.0153137 0.00951114 -0.116176 -1.12836e-018 3.10601e-018 -4.96962e-017 -19.8461 1.18572 1.9636 -0.0156662 0.876014 -1.03005 -0.745923 -2.1526 -0.827342 -2.65679e-015 -6.21202e-018 -0 -1.12836e-018 3.10601e-018 -4.96962e-017 20.2485 2.85999 2.05276 -0.033902 -0.849544 -2.51468 0.970829 -2.00876 0.578841 -3.5877e-015 6.21202e-018 1.2424e-017 -1.12836e-018 3.10601e-018 -4.96962e-017 0.0289395 -0.0787395 0.00674512 -0.00170871 0.0720341 0.00808884 0.00133108 -15.9999 0.00502357 0.00556087 21.0001 -0.0156622 0.14513 11.037 -0.0125544 0.38006 0.00854373 3.38566 -38.6686 -48.2549 -41.2062 10.5578 53.8645 -0.000922305 -0.0463161 -1.66331 -4.50957 -1.56734e-006 -2.2991e-007 3.42098e-006 5.72592e-008 2.9039e-008 1.68186e-006 -7.95139e-016 7.95139e-016 -0 -0.32998 0.00741754 -3.46599 22.6337 -45.3784 22.2878 2.17147 49.2672 0.00596044 -2.64695 -1.78722 0.1954 1.86361e-015 9.93923e-017 -1.59028e-015 -4.23313e-007 5.20607e-008 4.65625e-009 2.98177e-016 -1.98785e-016 -0 
